PathFileType	4	(X/Y/Z)	Patient4_TMGait_0pt3_01_right_23.trc.trc
DataRate	CameraRate	NumFrames	NumMarkers	Units	OrigDataRate	OrigDataStartFrame	OrigNumFrames
55.118110236220	55.118110236220	5	33	mm	55.118110236220	53	       141
Frame#	Time	Sacral			L.Shoulder			Chest			R.Shoulder			Neck			R.ASIS			L.ASIS			R.Thigh.Superior			R.Thigh.Lateral			R.Thigh.Inferior			R.Patella			L.Thigh.Superior			L.Thigh.Lateral			L.Thigh.Inferior			L.Patella			L.Shank.Superior			L.Shank.Lateral			L.Shank.Inferior			R.Shank.Superior			R.Shank.Lateral			R.Shank.Inferior			R.Heel			R.Midfoot.Superior			R.Midfoot.Lateral			R.Toe			L.Heel			L.Midfoot.Lateral			L.Midfoot.Superior			L.Toe			L.Elbow			L.Wrist			R.Elbow			R.Wrist			
		X1	Y1	Z1	X2	Y2	Z2	X3	Y3	Z3	X4	Y4	Z4	X5	Y5	Z5	X6	Y6	Z6	X7	Y7	Z7	X8	Y8	Z8	X9	Y9	Z9	X10	Y10	Z10	X11	Y11	Z11	X12	Y12	Z12	X13	Y13	Z13	X14	Y14	Z14	X15	Y15	Z15	X16	Y16	Z16	X17	Y17	Z17	X18	Y18	Z18	X19	Y19	Z19	X20	Y20	Z20	X21	Y21	Z21	X22	Y22	Z22	X23	Y23	Z23	X24	Y24	Z24	X25	Y25	Z25	X26	Y26	Z26	X27	Y27	Z27	X28	Y28	Z28	X29	Y29	Z29	X30	Y30	Z30	X31	Y31	Z31	X32	Y32	Z32	X33	Y33	Z33	

53	43.183428571429	766.396224391678	987.975497210966	586.850812704462	956.987530142952	1414.963470092608	403.587975210731	1051.276076449278	1349.755552781104	571.090909376759	959.666715894607	1428.621779008830	738.293367885127	937.116842330718	1480.867611211114	560.537996055033	996.120136582942	932.858156023394	711.229338513433	989.268560970146	950.096637628364	435.952734909842	1049.075490198312	733.648252152410	674.193787966635	970.273200721033	615.155297229419	720.751915819270	1054.564586552508	570.507100939201	642.577184318954	1057.438951434501	473.762197214560	643.965086008147	1074.425265360429	767.644660400120	470.249931487786	1037.631701533478	641.555131858417	387.423374662896	1137.086295319555	580.942849626584	458.283087180997	1152.481769362829	492.314074935940	446.674385960916	1089.029694762087	426.171821640590	428.184221786490	951.228968903835	378.800929432904	375.008298836096	950.419561074728	243.832635665231	414.853702965648	1010.449588468328	387.395464235986	642.168879682988	920.687216791978	294.116059336885	696.485979739067	944.943756386495	197.757958682574	628.655078347831	786.397296584292	46.468419845167	589.593904881514	958.517636850942	97.116605374055	632.498302740308	867.381002159942	38.454142697609	666.897316895347	1075.927013210447	40.034779031321	664.369142176686	767.967590651327	160.542909195796	448.642019620813	825.423336209398	129.957268681687	361.943443016474	929.779250869157	143.109550327643	381.696098738676	1013.328300502931	41.541535172088	337.321055184660	938.328867165450	1055.891946219482	304.556804723456	1009.667277719646	805.886636109982	314.550956968351	1035.701498067574	1109.520466029897	896.435056906395	1279.867664514577	1033.235031132683	944.565524256914	
54	43.201571428571	765.784236688999	987.244833076766	590.071699149980	954.233559972494	1413.291961647755	403.493458695458	1050.997242084079	1348.521385993777	569.723240890630	962.179268758029	1428.132490317785	738.066936802952	937.101908028992	1479.818549291329	560.440751212041	996.923908554031	931.737018035724	711.630792591591	986.509832647720	949.279104187742	436.581840781519	1048.562928514032	732.251767579253	673.580496775822	970.164050822954	613.809695170339	720.952033293938	1053.372856116261	569.130226781876	641.655951456612	1055.875718755249	472.189787766427	642.882017573854	1073.064092606722	768.298676944891	470.293252960636	1037.145083145133	642.130376629078	387.508716919590	1137.297295214773	582.535843194645	458.043452704158	1154.484189174343	495.075743544308	446.268155239184	1094.115769990078	427.529394840304	427.674098639068	959.143351372988	373.026191962905	374.724695612450	965.886701911645	238.060714922088	414.453735681901	1008.053422818246	386.004304652619	641.443615737345	917.891060372646	293.332663809919	696.200742553488	940.747772011202	196.883224248077	628.177445351163	780.965886117797	46.392712821710	589.666908732910	953.011178228376	97.008658410003	632.399080211148	861.914404247941	38.401491226944	666.948379821937	1070.464401540133	39.982763828973	664.431543508360	788.449637574289	143.326451673301	448.489940319163	847.893016032925	117.398059035142	361.430980582667	951.248778412836	137.201358506275	381.187497646508	1041.457706448125	42.017481324937	335.895776189008	923.584451331622	1054.943889558226	305.319823854547	976.934682425484	800.136018796167	312.177485751506	1047.532694702787	1113.325035080022	898.000784299081	1296.083548539592	1049.635697091588	940.798015195832	
55	43.219714285714	765.325645688868	987.006510915880	593.167232779535	951.385760421068	1412.133150972140	403.259288810653	1050.764929193358	1347.709042020195	568.042691145324	964.942228774497	1428.050764164110	737.572204107940	937.154111930016	1479.184394442074	560.157997969466	997.809372056706	930.922219779589	711.650106234675	983.661853260507	948.803020604012	436.924129296979	1047.649545419534	730.987348733713	672.633877080010	969.475374110382	612.797595641547	721.001193037870	1051.358510396545	567.911522545225	640.500911206989	1053.339842306933	470.900687921932	641.618659719276	1071.320514622179	768.988170179940	470.082465487172	1036.084052571194	642.842971891323	387.254805556630	1136.662963129945	584.024867467778	457.560419860159	1155.578652794050	497.929750528999	445.638027112199	1098.541364633326	429.088667852066	426.986981825296	967.159690067977	367.121016654142	373.855633297017	981.653914549474	232.597105609269	413.765928897415	1004.894205712932	384.918002213694	640.642362970503	914.572180972807	292.681122429778	695.916363975365	936.234895316573	196.175114551042	627.708670684121	775.523508908350	46.304765015096	589.797188276391	947.460038489030	96.886309481099	632.278447494601	856.437515410354	38.340600606962	667.021294486705	1064.992095358502	39.942943915286	664.472464928360	809.991109709822	126.698721114018	447.609400103284	871.421487583803	105.105756741489	360.582716550693	973.319286021195	131.474848603546	380.632443248594	1069.866477325061	42.762740897080	335.273862427553	908.387732294084	1055.218170841677	305.518221836156	945.170805102230	797.309728757967	310.235954602600	1059.294342357442	1117.808116853506	899.180174899521	1311.425986215934	1066.575734448277	936.194956168596	
56	43.237857142857	765.043784024154	987.319073816989	596.101519358612	948.481016257989	1411.543060550011	402.871335102887	1050.594303339955	1347.379040254853	566.043622747697	967.951609276242	1428.444032170488	736.778022321256	937.281072994514	1479.022247038931	559.666026159706	998.744307310221	930.470896174292	711.313178521324	980.830014898683	948.753833461406	436.970805965421	1046.319746894597	729.908526297129	671.470940911778	968.116603787265	612.181397637050	720.943458764834	1048.485264049358	566.901136927303	639.234948783443	1049.777430645315	469.947953402926	640.292617100357	1069.219894429476	769.770528279434	469.643201320146	1034.448418068328	643.731800962937	386.678323443444	1135.222626437197	585.444325218814	456.809907675581	1155.774980790297	500.891206512596	444.801523638199	1102.234676058805	430.903901956668	426.169923202459	975.179504873884	361.370653921459	372.443493166837	997.397756859886	227.761089056856	412.866282726204	1000.931601435734	384.191581561686	639.849401212932	910.670349892146	292.211275029416	695.675398204170	931.391454920319	195.680505315030	627.294085688431	770.069690332435	46.226705593315	589.980746361373	941.880930591643	96.761586476700	632.157342689854	850.953516778703	38.283431860116	667.114923408995	1059.510586549875	39.910795572729	664.496064713624	832.142304780452	111.246388001326	446.070737656265	895.573469411799	93.604624358493	359.476969234890	995.560864574519	126.326703233569	380.112003481990	1098.004913161123	44.029783166033	335.560208170960	892.871117174945	1056.752520170299	305.298088568984	914.741814238164	797.132430384130	308.818407559569	1070.965484273691	1123.008099174488	899.925846381807	1325.869934827046	1084.002978260240	930.827151569007	
57	43.256000000000	764.947652429633	988.204799488538	598.823467343228	945.572585348070	1411.535646197415	402.316147649805	1050.500574392989	1347.550885964109	563.733855954450	971.183106104041	1429.339480470736	735.660174823483	937.488480155493	1479.349814752528	558.943533889835	999.693195234124	930.407631480141	710.656368234617	978.112550386204	949.177062070202	436.723239649039	1044.563344169100	729.047147517873	670.193807782362	966.023062912462	611.995178514794	720.816512548457	1044.741871593210	566.130197305682	637.965909752165	1045.167561667709	469.366001081140	639.004141742019	1066.804576273138	770.670698512258	468.983755194746	1032.236307290970	644.798552987607	385.798574811192	1133.028932325306	586.798577720632	455.756363001967	1155.089697574357	503.940912735207	443.765719525178	1105.127103452731	432.984788615826	425.256149109343	983.051476296772	356.002896019456	370.561342993840	1012.765948754153	223.777148930716	411.832989827994	996.155138396889	383.856497828690	639.133485259109	906.150680916465	291.957693472753	695.508275515134	926.215498650609	195.429543759911	626.966325400967	764.603188898807	46.174543123298	590.208933344616	936.290805636294	96.647286501502	632.057153294151	845.464639468615	38.238730033250	667.227326474947	1054.019698956216	39.884159571108	664.506692988505	854.388189998498	97.389994232810	443.993114341519	919.842973914563	83.292808931779	358.207026250340	1017.509059371317	122.059136681182	379.691304550931	1125.338140553949	46.014672731646	336.768492790192	877.211150643650	1059.520630402029	304.821321735020	885.919437021504	799.250516801605	307.983079021239	1082.523336999969	1128.919632159588	900.182439818909	1339.408472746051	1101.831017481443	924.765112278143	
